<svg version="1" xmlns="http://www.w3.org/2000/svg" width="1026.667" height="1026.667" viewBox="0 0 770.000000 770.000000"><path d="M364 4.4c-10.9 2.4-17.5 7.1-21.8 15.7-4.7 9.4-28.5 88.3-27.7 92 .5 2.2.3 2.9-.9 2.9-3.2 0-1.5 1.5 1.8 1.7 2.6.1 3.5-.3 3.9-1.8.6-2.4 1.8-2.4 14.2 0 5.5 1.1 12.9 2.3 16.5 2.7 3.6.3 8.8 1 11.5 1.4 11.6 1.9 58.1-.1 72-3 7.6-1.5 21-5.2 21.8-5.9.4-.4-5.7-21.8-13.7-47.5-15.8-51.5-15.3-50.4-25.1-55.1-2.7-1.3-7.9-2.9-11.5-3.5-8.7-1.3-34.2-1.1-41 .4zM311 120.9c0 .6.9 1.5 2 2.1 1.1.6 2 1.8 2 2.7 0 .9.3 1.4.6 1 1-1-.7-4.7-2.7-5.7-1.2-.7-1.9-.7-1.9-.1zM308.1 129.2c-.7 1.8-.3 2.5 1.7 3.5 2.9 1.6 3.9 1.1 1.7-.7-1.9-1.6-1.9-3-.1-3 .8 0 1.8-.5 2.1-1 .4-.6-.5-1-2-1-1.7 0-2.8.7-3.4 2.2zM304.9 139.6c-.5 1.4-.9 3.9-.9 5.5s-.4 2.9-.9 2.9c-1.8 0-2.2 5.2-.6 6.9.8 1 1.5 2.6 1.5 3.5 0 1.4-.6 1.7-2.5 1.4-2.1-.4-2.5-.1-2.5 1.8 0 1.3-.4 2.4-1 2.4-.5 0-1 .4-1 .9 0 .9 7.1 2.4 7.8 1.6.2-.2.5-2.5.6-5 .1-2.5.6-4.9 1.2-5.3 1.9-1.2 2.2-3.7.8-5.7-.8-1-1.4-3-1.4-4.3 0-1.9.4-2.2 2-1.7 1.4.4 2 .2 2-.9 0-.8.2-2 .5-2.8.3-.7-.6-1.8-2.1-2.5-2.3-1-2.6-.9-3.5 1.3zM296 168.8c0 .5.7 1.5 1.5 2.2.8.7 1.5 2.1 1.5 3.2 0 1.6-.5 1.9-2.5 1.6-2-.4-2.6-.1-3.1 1.8-.5 1.7.1 2.9 2.3 4.8 3.4 3 4.5 2.5 1.5-.7-3.1-3.3-2.8-4.7 1.3-4.7 1.9 0 3.6-.5 3.7-1 0-.6.1-1.4.2-1.9.1-.4-1.4-2-3.1-3.5-1.8-1.5-3.3-2.3-3.3-1.8zM289.9 189.4c-.6 2.2-1.7 5.8-2.5 7.8-.8 2.3-1 3.9-.4 4.3.6.3 1 1.7 1 3.1 0 1.8-.5 2.4-1.7 2.2-2.9-.5-3.3 4.4-.6 6.5 2.6 2 3.1 5.7.9 5.7-.8 0-2.2-1-3.2-2.3l-1.6-2.2.6 2.7c.5 2.1.3 2.8-.9 2.8-.8 0-1.5.4-1.5 1 0 .5.6 1 1.3 1 .8 0 2.4 1.1 3.7 2.5 2.7 2.9 4 1.9 4-3.2 0-1.7.8-4.5 1.8-6.2 1.4-2.5 1.5-3.4.5-5.1-2-3-1.6-6 .6-6 2.8 0 3.2-4.2.6-5.5-2.1-1.1-3.4-6.5-1.5-6.5.6 0 2 .5 3.1 1 2.1 1.2 2.6.1.7-1.8-.9-.9-.6-1.3 1.1-2 2-.7 1.9-.9-1.4-2.4l-3.5-1.6-1.1 4.2zM279 226.6c0 .6.9 1.9 2 2.9 3.2 2.9 2.6 4.5-1.5 3.8-3.2-.5-3.5-.4-3.5 1.9s4.4 7.7 5.5 6.6c.3-.2-.4-1.3-1.5-2.3-3.3-3-2.6-4.8 1.5-4.1 5.3 1 5.8-1.6 1.1-6.2-2-2-3.6-3.2-3.6-2.6zM273.7 242.7c-.7 1.2-43.5 142.2-44.1 145.3-1 5.4-3 12.7-4.2 15.7-1.8 4-1.8 6.2.1 6.9.9.4 1.5 1.9 1.5 4 0 3.1-.3 3.4-3 3.4s-3 .2-2 1.9c1.4 2.6 1.3 2.8-1 3.4-1.1.3-2 1-2 1.7s.8.9 2 .5c3.1-1 6 1.2 6 4.6 0 3.8-2.2 4.7-5.6 2-3.9-3-5.2-2.6-2.1.7 4 4.1 3.6 6.4-.9 6-3.6-.3-3.6-.2-5.4 5.5-1 3.1-1.6 5.7-1.3 5.7.3 0 .1.6-.5 1.2-1.6 2.1-2.4 7.5-1.3 8.3.6.3 1.1 2.1 1.1 4 0 2.7-.4 3.4-2.2 3.7-1.7.2-2.2.9-2.1 2.6.2 1.4-.3 2.2-1.2 2.2-.8 0-1.5.4-1.5 1 0 .5 1 1 2.3 1 3.2 0 4.7 1.8 4.7 5.7 0 2.7-.4 3.3-2.2 3.3-1.2 0-3-.7-4-1.7-2.7-2.4-3.5-.7-.9 2.1 2.7 2.8 2.1 4.6-1.5 4.6-2.1 0-2.4-.3-1.8-2.5l.6-2.5h-30.8c-27.7 0-31.3.2-34.9 1.9-5.8 2.6-10.1 6.5-12.4 11.4-1.1 2.3-7.7 23.1-14.6 46.2-7 23.1-16.5 54.6-21.1 70C80.3 635.8 60 704 53 727.9c-2.3 7.6-1.5 10.3 2.8 9.6 12.6-2 20.7-3.1 27.9-4 1.3-.2 4-.6 6-.9 2.1-.4 5.4-.9 7.3-1.1 1.9-.2 6.9-.9 11-1.5 4.1-.7 10.2-1.5 13.5-2 3.3-.5 12.5-1.8 20.5-3 60.9-9.1 69.2-10.2 69.9-9.3.4.4 2.4 3 4.5 5.6 5.9 7.4 12.6 11.4 23.1 13.6 12.7 2.8 41.5 6.8 58 8.1 32.6 2.6 97.4 2.8 132.5.5 13.5-.9 13.2-1.2-4.5-3.5-9.1-1.1-11-1.4-37.5-5-8-1.1-18.3-2.5-23-3.1-7.7-1-22.2-3.9-44.5-9.1-4.4-1-11.6-2.5-16-3.4-4.4-.9-8.9-2-10-2.5-2.9-1.1 6.8-1.1 13.6 0 3 .6 9.9 1.2 15.4 1.5 5.5.3 12.5.7 15.5 1 6.4.7 29 2.5 37 3.1 3 .2 9.8.7 15 1 5.2.4 9.7.8 10.1 1.1.3.2 4.4.8 9 1.4 4.6.5 11.6 1.4 15.4 2 8.9 1.3 21.8 3 27 3.5 2.2.3 5.1.7 6.5 1 1.4.3 5 .7 8 1 3 .3 6.2.7 7 1 .8.2 4.2.7 7.5 1 3.3.3 6.7.8 7.5 1 .8.2 3.8.6 6.5.9 2.8.3 7.3 1 10 1.5 10.6 2 41.1-6.8 53.8-15.6 3.8-2.7 4.6-3.9 2.5-4-.7 0-5.1-.6-9.8-1.3-4.7-.6-11.4-1.5-15-2-3.6-.5-10.1-1.3-14.5-2-4.4-.6-11.1-1.5-15-2-3.8-.6-9.8-1.3-13.2-1.6-3.5-.4-6.3-1.1-6.3-1.5 0-.5-1.8-.9-4-.9s-4-.5-4-1c0-.6-2.3-1-5.1-1-3.1 0-4.8-.4-4.4-1 .8-1.3 2.4-1.3-43.5-1.1-22.3 0-43.4-.3-47-.8l-6.5-.8 8.6-.2c19.5-.3 96.3-7.1 114.7-10.2 14.1-2.3 32.1-7.1 46.7-12.3 5.5-2 10.4-3.6 10.9-3.6 1.9 0-4.9 6-8.9 8-3.6 1.7-24.6 7.5-53 14.4l-9 2.2 8 .1c4.4 0 15.2.6 24 1.2 16.4 1.2 19.5 1.6 50.2 5.7l5.3.7 1.4-3.5c1.9-4.6 6.4-20.6 6.8-24.3.3-2.5-.1-3.1-2.2-3.3-3.5-.5-5.3-2.4-2-2.2 5.1.4 5.9 0 8-4.6 1.5-3.6 1.7-5 .9-6-.9-1.1-.2-1.8 3.5-3.5 2.6-1.1 5.4-1.8 6.1-1.5.8.3 1.7.1 2-.3.5-1 4.3-1.8 12-2.6 2.8-.3 5.7-.8 6.5-1 .8-.2 3.5-.7 6-1 8.9-1.1 17.8-2.4 32-4.5 18.5-2.8 25.9-3.8 33.8-4.9 3.5-.5 6.5-1.1 6.7-1.3.7-.6-39.7-137.6-43.7-148.3-1.5-4.1-6.6-9.4-10.5-11.1-2.5-1.1-10.2-1.4-35.3-1.4-17.6 0-32 .3-32 .6s1 3.7 2.1 7.6c1.8 5.9 1.9 7.2.8 8-1.1.8-1.1.9.2.5s2.2 1.4 4.3 8.5c1.5 5 2.6 9.1 2.4 9.3-.2.1-2.7 2.1-5.6 4.3-5.3 4.1-7.2 4.5-7.2 1.6 0-1.8-2.9-1.8-5.4.1-1 .8-2.2 1.3-2.5 1-.4-.2-.5 1.2-.3 3.1.3 2 .8 3.1 1.4 2.8.6-.4.9-.1.7.5-.5 1.5-8.3 5.7-12 6.5-1.4.3-3.1 1.6-3.8 2.9-.8 1.6-5.4 4.5-12.9 8.2-15.6 7.7-18 8.8-29.7 13.3-37.7 14.4-75.2 21.2-118 21.2-55 0-104.9-11.7-150.8-35.2-8.6-4.4-16.9-9.8-29.9-19.4-4.8-3.5-5.3-7.4-1-7.4 1.6 0 3.8.9 4.9 2 2.1 1.9 2.1 1.9 3.1-.8.5-1.5.7-5.3.4-8.5-.4-4.6-.2-5.7 1.1-5.7 2.4 0 2.9-4.2.7-6.5-1.5-1.6-1.9-2.9-1.4-5.3.7-3.4 2.1-4 4.4-2 1.3 1.1 1.3 1.1.3-.1-2.1-2.4-1.6-6.1 1-7.1 2.2-.9 2.2-.9-.3-.9-3.5-.1-5-1.9-5-5.8 0-3.2 1.2-4.3 2.5-2.3.3.5 2 1.9 3.8 3.1l3.2 2.2-2.7-2.9c-1.6-1.7-2.8-4.2-2.8-5.7 0-2.7 1.2-3.3 6.2-2.9 1 .1 2-1 2.7-2.8.9-2.6.8-3-.8-3-1.9 0-8.1-5.9-8.1-7.7 0-2.5 6.1-3.1 8-.8 1.8 2.2 2.9 1.9 4.1-1.3.7-1.9.7-3.2 0-4.4-1.8-3-1.4-7.9.8-8.5 2.7-.7 3.4-5.1 1-6.4-1.4-.7-1.9-2.1-1.9-4.9 0-4.2 1.4-5.1 3.9-2.8 1.1 1.1 1.1.9.2-.9-1.7-3.3-1.4-4.3 2-5.5 1.8-.6 3.4-2.1 4-3.6.9-2.2.5-3-2.7-6.3-2.1-2.1-3.5-4.1-3.2-4.5.4-.3 2.6-.7 4.9-.9 3.7-.2 4.4-.7 5.1-3 .3-1.5.4-3.3.1-4.1-.7-2 .6-1.7 4.7.8 6.6 4.1 25.5 13.1 35.5 16.8 50.4 19 107.5 23 164.2 11.6 15.8-3.2 37.5-9.3 45.3-12.9 21.4-9.6 37.9-18.8 45.7-25.4l3.2-2.8-21.6-70.2-21.6-70.3-2.6.7c-1.4.3-3.5 1.2-4.6 1.9-1.8 1.2-8.9 3.8-20.5 7.7-12.7 4.2-15.7 4.9-41 9.2-12.9 2.2-45.4 3.4-62.5 2.3-35.7-2.3-62.1-7.8-81.7-17-8.9-4.2-11.1-6.7-6-6.9l2.7-.1-3-1c-1.6-.6-3.5-1.5-4.2-2-.6-.5-1.4-.5-1.6-.1zM242 399c0 2-3.7.9-6.3-1.8-4.2-4.4-3.2-5.6 1.8-2.2 2.5 1.7 4.5 3.5 4.5 4zm-7.3-.8c1.1 1.3 2.3 3.5 2.7 5 .6 2.5.4 2.8-2.1 2.8-3.5 0-6.3-2.7-6.3-6 0-4.6 2.4-5.4 5.7-1.8zm.7 15.9c3.6 2.8 3.5 6.5-.1 7.2-3.8.7-6.3-1.7-6.3-6 0-4 2.3-4.4 6.4-1.2zm-10.6 28.2c2 2.4 2.5 6.6.8 7.3-3.2 1.2-9.2-5.6-6.9-7.9 1.1-1.2 5-.8 6.1.6zm-5.6 6.4c3.5 3.3 3.5 4.9.2 5.7-3.5.9-5.4-.9-5.4-5s1.4-4.3 5.2-.7zm-.3 14.9c4.3 3.5 4.2 6.4-.2 6.4-4 0-5.7-1.5-5.7-5 0-4.7 1.5-5.1 5.9-1.4zm-8.6 32.6c-.6 3.4-2.8 3.6-6 .6-3-2.8-3.1-6.5 0-7 3.3-.6 6.7 3 6 6.4zm-7.6 2c4 3.9 4.2 5.4.6 6.1-3.5.7-4.9-.5-5.7-4.4-1.1-5.7.5-6.2 5.1-1.7zm6.1 9c1.9 1.9 1.5 7.8-.5 7.8s-7.3-4.8-7.3-6.6c0-2.3 5.8-3.2 7.8-1.2zm-13.8 6.2c0 2.5-.5 3.5-2 3.9-2.3.6-2.3.6-.9-4.4 1.4-4.5 2.9-4.2 2.9.5zm7.6-.1c3.7 3.2 2.7 6-1.8 5.5-2.6-.2-3.4-.8-3.6-2.6-.4-2.8.4-5.2 1.7-5.2.5 0 2.2 1.1 3.7 2.3z"/><path d="M545 410.3c-1.9 1.5-1.4 5.7.6 5.7 1.9 0 2.9-2.6 1.8-5-.7-1.5-1.2-1.6-2.4-.7zM545.7 425.8c-2.3 2.5-2.2 6.2.1 6.2 2.6 0 6.4-4.3 5.6-6.3-.8-2.2-3.7-2.1-5.7.1zM545.8 441.4c-2.5 1.8-2.4 6.6 0 6.6 2.3 0 6.2-4 6.2-6.3 0-2.1-3.7-2.2-6.2-.3zM546.3 457.9c-3.1 2.6-3.1 6.1 0 6.1 2.9 0 5.7-2.9 5.7-5.8 0-2.7-2.6-2.8-5.7-.3zM560.3 459.1c-2 2-1.6 5.6.7 6.2 2.7.7 3.3-.6 1.8-4.3-1-2.5-1.5-2.9-2.5-1.9zM536 472.6c0 1.4.4 2.3 1 1.9.6-.3 1-1.5 1-2.6 0-1-.4-1.9-1-1.9-.5 0-1 1.2-1 2.6zM546.3 473.9c-3 2.5-3.1 6.1-.1 6.1s6.7-3.7 6.1-6.1c-.7-2.4-3.1-2.4-6 0zM561.2 475.3c-4.4 4.7-1.2 8.5 3.7 4.4 2.2-1.8 2.6-2.8 2-4.5-1.1-2.8-3-2.8-5.7.1zM535 489.1c0 2.7.2 3 1.5 1.9.8-.7 1.5-2.1 1.5-3.1 0-1.1-.7-1.9-1.5-1.9-1 0-1.5 1-1.5 3.1zM546.8 490.1c-2.3 2.4-2.3 5.5-.1 6.3 2.2.9 6.5-3.2 6.1-5.9-.4-2.6-3.8-2.9-6-.4zM561.2 491.5c-3 2.8-3 6.5.1 6.5 2.6 0 6.7-3.8 6.7-6.2 0-2.5-4.2-2.7-6.8-.3zM534 505.7c0 3.5 0 3.6 2 1.8 1.1-1 2-2.6 2-3.7s-.7-1.8-2-1.8c-1.6 0-2 .7-2 3.7zM547.2 506.3c-4.3 4.6-1 8.8 3.5 4.6 2.7-2.6 3-5.4.7-6.3-2.1-.8-1.8-.9-4.2 1.7zM562.6 506.6c-.3.8-1.1 1.4-1.9 1.4-2.2 0-1.5 5.4.8 6.1 2.6.8 6.5-2.7 6.5-5.7 0-2.5-4.5-4-5.4-1.8zM576.4 509.8c-.6.4-1.5 2.2-1.9 3.9-.6 3-.5 3.3 1.9 3.3 3.2 0 3.6-.8 2.2-4.7-.7-2-1.5-3-2.2-2.5zM533.8 521.4c-.3 2.2-.4 4.2-.2 4.4.1.2 1.3-.6 2.7-1.8 2.8-2.4 2.6-5.5-.3-6.3-1.5-.4-1.9.3-2.2 3.7zM546.9 522.6c-2.5 2.7-2.1 5.8.7 6.2 2.6.4 6.4-4 5.7-6.6-.6-2.4-3.9-2.2-6.4.4zM532.9 536.7c-1 2.7-.6 5.3.9 5.3 1.8 0 5.2-4.7 4.6-6.3-1-2.7-4.3-2-5.5 1zM49.4 738.5c-1.4 4.7-.9 15.6.9 19.1.9 1.7 3.1 4.4 5 6.1l3.4 3 321.4.6c215.8.4 322.9.2 326.1-.4 9.1-2 13.9-7.2 15.4-16.8l.7-4.4-2.9 2.2-2.9 2.1-329.7-.2-329.8-.3-2.7-2.7c-1.7-1.7-2.9-4.3-3.3-7l-.7-4.3-.9 3z"/></svg>